name D:\school\WTK\thesis\model\3dpredictsim\Results\batch_windlass\Pog_s1_tmt_bCst_d00_k800_WL20_ig24_act_TTC.mot
datacolumns 128
datarows 4
range 1.97829827 2.01786424
endheader
time	pelvis_tilt	pelvis_list	pelvis_rotation	pelvis_tx	pelvis_ty	pelvis_tz	hip_flexion_l	hip_adduction_l	hip_rotation_l	hip_flexion_r	hip_adduction_r	hip_rotation_r	knee_angle_l	knee_angle_r	ankle_angle_l	ankle_angle_r	subtalar_angle_l	subtalar_angle_r	tmt_angle_l	tmt_angle_r	mtp_angle_l	mtp_angle_r	lumbar_extension	lumbar_bending	lumbar_rotation	arm_flex_l	arm_add_l	arm_rot_l	arm_flex_r	arm_add_r	arm_rot_r	elbow_flex_l	elbow_flex_r	pro_sup_l	pro_sup_r	glut_med1_l/activation	glut_med2_l/activation	glut_med3_l/activation	glut_min1_l/activation	glut_min2_l/activation	glut_min3_l/activation	semimem_l/activation	semiten_l/activation	bifemlh_l/activation	bifemsh_l/activation	sar_l/activation	add_long_l/activation	add_brev_l/activation	add_mag1_l/activation	add_mag2_l/activation	add_mag3_l/activation	tfl_l/activation	pect_l/activation	grac_l/activation	glut_max1_l/activation	glut_max2_l/activation	glut_max3_l/activation	iliacus_l/activation	psoas_l/activation	quad_fem_l/activation	gem_l/activation	peri_l/activation	rect_fem_l/activation	vas_med_l/activation	vas_int_l/activation	vas_lat_l/activation	med_gas_l/activation	lat_gas_l/activation	soleus_l/activation	tib_post_l/activation	flex_dig_l/activation	flex_hal_l/activation	tib_ant_l/activation	per_brev_l/activation	per_long_l/activation	per_tert_l/activation	ext_dig_l/activation	ext_hal_l/activation	ercspn_l/activation	intobl_l/activation	extobl_l/activation	glut_med1_r/activation	glut_med2_r/activation	glut_med3_r/activation	glut_min1_r/activation	glut_min2_r/activation	glut_min3_r/activation	semimem_r/activation	semiten_r/activation	bifemlh_r/activation	bifemsh_r/activation	sar_r/activation	add_long_r/activation	add_brev_r/activation	add_mag1_r/activation	add_mag2_r/activation	add_mag3_r/activation	tfl_r/activation	pect_r/activation	grac_r/activation	glut_max1_r/activation	glut_max2_r/activation	glut_max3_r/activation	iliacus_r/activation	psoas_r/activation	quad_fem_r/activation	gem_r/activation	peri_r/activation	rect_fem_r/activation	vas_med_r/activation	vas_int_r/activation	vas_lat_r/activation	med_gas_r/activation	lat_gas_r/activation	soleus_r/activation	tib_post_r/activation	flex_dig_r/activation	flex_hal_r/activation	tib_ant_r/activation	per_brev_r/activation	per_long_r/activation	per_tert_r/activation	ext_dig_r/activation	ext_hal_r/activation	ercspn_r/activation	intobl_r/activation	extobl_r/activation	
          1.97829827	         -2.92949919	          0.54819922	        -10.19724875	          2.47287284	          0.85383401	          0.00269219	         33.19966101	         -0.54380582	          0.60073940	        -16.36384640	         -3.07665226	          7.28887521	        -15.60345123	        -18.31646507	          8.57863276	        -15.43330680	          1.65412923	         18.28688267	         -0.16684702	         -8.00477662	          0.79776973	         38.25915732	          0.60364630	          2.17757091	          4.08725148	        -14.72714121	        -13.67796715	         13.03302492	          2.22396716	        -13.61674867	         17.03378383	         18.07516677	         47.97220893	         86.51662706	         86.51662706	          0.08073428	          0.05000320	          0.05000003	          0.06099076	          0.06099019	          0.05000856	          0.08752438	          0.06099052	          0.06099061	          0.05000167	          0.05000032	          0.08651292	          0.12356728	          0.13474338	          0.15210704	          0.13012924	          0.05000007	          0.07429942	          0.06099153	          0.05000009	          0.05000006	          0.16518952	          0.05751492	          0.05605354	          0.15767716	          0.20479694	          0.27823528	          0.05507125	          0.22310907	          0.21609962	          0.19039121	          0.05342945	          0.05128795	          0.06117064	          0.05000003	          0.06948457	          0.07439619	          0.65385596	          0.33045576	          0.17764434	          0.54059693	          0.64990625	          0.54532200	          0.05000001	          0.13503064	          0.10345511	          0.15365257	          0.07439630	          0.05000012	          0.16403423	          0.10719279	          0.07439603	          0.05000155	          0.05071707	          0.05000110	          0.05679518	          0.07441288	          0.14563689	          0.21824032	          0.13749198	          0.05008184	          0.05000071	          0.15606751	          0.09102926	          0.06462297	          0.05000156	          0.05000118	          0.05000078	          0.32662121	          0.33712918	          0.05422817	          0.05000059	          0.05000030	          0.19024099	          0.07567277	          0.07740117	          0.07285595	          0.11535437	          0.17330110	          0.05000000	          0.12518306	          0.15074295	          0.15354486	          0.28959059	          0.51193790	          0.36772449	          0.73099677	          0.54621675	          0.15359418	          0.05000001	          0.06523971	          0.07439744	
          1.99148693	         -2.92984818	          0.48383807	        -10.29938856	          2.49479205	          0.85195579	          0.00225933	         32.36488552	         -0.25324770	          0.80432310	        -16.31791937	         -3.31081470	          7.00196581	        -15.98134604	        -19.95030904	          7.65583811	        -18.75941216	          1.27115935	         18.48332122	         -0.29277139	         -8.05344700	          1.04747405	         37.59967308	          0.85040178	          1.96683101	          4.19400230	        -16.37860344	        -13.68449141	         13.26805671	          1.63131810	        -13.71619832	         17.27006853	         18.00201783	         49.26962444	         86.51662706	         86.51662706	          0.20118641	          0.05000011	          0.28810940	          0.05000027	          0.05000010	          0.05000013	          0.07175243	          0.05000003	          0.05000007	          0.05000001	          0.05000012	          0.07439677	          0.10130041	          0.14731013	          0.15911322	          0.12395106	          0.05000042	          0.06099134	          0.05000095	          0.14111685	          0.13434192	          0.13542229	          0.05637434	          0.05154446	          0.16524843	          0.16789240	          0.22809714	          0.06099085	          0.30882791	          0.30467887	          0.26581149	          0.05000008	          0.05000016	          0.05678824	          0.05000012	          0.05696368	          0.06099030	          0.62599778	          0.40374262	          0.21322827	          0.61824119	          0.64388497	          0.44705457	          0.05000000	          0.11069801	          0.08481242	          0.12596430	          0.06099022	          0.06099046	          0.13447522	          0.08787661	          0.06099012	          0.05000095	          0.05000011	          0.05000025	          0.05000004	          0.06100373	          0.14228096	          0.27317873	          0.11705428	          0.06100876	          0.08518881	          0.12794404	          0.07462625	          0.05297808	          0.05000212	          0.05000192	          0.06090922	          0.26776382	          0.27637825	          0.06099051	          0.06098931	          0.05000044	          0.15595942	          0.09075015	          0.09075015	          0.09075015	          0.09456742	          0.14207210	          0.05000001	          0.10262497	          0.12357896	          0.12587596	          0.23740614	          0.41968642	          0.30410810	          0.76359921	          0.75852875	          0.45361148	          0.07825098	          0.06099053	          0.06099097	
          2.00467558	         -2.92575528	          0.42955915	        -10.35115439	          2.51662789	          0.84974038	          0.00182541	         31.37334577	          0.04918966	          1.03730769	        -16.07032850	         -3.52525854	          6.72943585	        -16.71785828	        -22.00566405	          7.04548144	        -21.53669317	          0.88335752	         18.57683198	         -1.45574702	         -7.57226147	          1.09011165	         34.70465727	          1.08160249	          1.72901843	          4.27943587	        -17.90825951	        -13.69428250	         13.64581787	          1.03152033	        -13.81236143	         17.44489795	         17.77171016	         50.47895920	         86.51662706	         86.51662706	          0.30798843	          0.34229907	          0.48464679	          0.08235040	          0.18147282	          0.31522621	          0.06647146	          0.07828779	          0.06885478	          0.07439685	          0.06099028	          0.06099043	          0.08304601	          0.12076477	          0.13044097	          0.13566434	          0.05000010	          0.05000095	          0.05000049	          0.26698129	          0.20409666	          0.13951337	          0.05000007	          0.05000006	          0.16277889	          0.13763816	          0.33708763	          0.05000026	          0.25317691	          0.24977559	          0.21791210	          0.05000000	          0.05000000	          0.05000000	          0.05000000	          0.05000007	          0.05000005	          0.80098255	          0.37302971	          0.17480460	          0.79685507	          0.79261894	          0.67887535	          0.05586915	          0.09075015	          0.06952915	          0.37743808	          0.05000003	          0.05000001	          0.27827503	          0.07204122	          0.05000009	          0.05000047	          0.05000002	          0.05000003	          0.05000003	          0.05001108	          0.14065887	          0.24084195	          0.09596128	          0.05001542	          0.06983784	          0.10488845	          0.06117895	          0.05000011	          0.05000039	          0.05000023	          0.05000010	          0.21951258	          0.22657480	          0.05000003	          0.05000013	          0.05000003	          0.12785540	          0.07439692	          0.07439692	          0.07439692	          0.07752630	          0.11647060	          0.05000017	          0.08413187	          0.10130995	          0.10319302	          0.22340207	          0.36880161	          0.27207864	          0.76448781	          0.87150615	          0.37187033	          0.10911728	          0.05000000	          0.05000035	
          2.01786424	         -2.91962214	          0.40487073	        -10.34741210	          2.53793441	          0.84762326	          0.00132764	         30.53649564	          0.39504384	          1.25876247	        -15.57072030	         -3.74247995	          6.48507461	        -17.70044064	        -24.45690405	          6.54531307	        -23.81173654	          0.47324098	         18.61076818	         -2.44093814	         -6.63263763	          1.11710777	         29.62723430	          1.26722646	          1.44804413	          4.34484530	        -19.21378255	        -13.69350455	         14.16532576	          0.51561543	        -13.87720594	         17.58241847	         17.34223464	         51.47203278	         86.51662706	         86.51662706	          0.40229703	          0.51747157	          0.64103183	          0.09476448	          0.38756867	          0.45426251	          0.05449327	          0.06553014	          0.05644715	          0.06099050	          0.05000005	          0.05000003	          0.06808108	          0.09900317	          0.13853504	          0.13332837	          0.05000002	          0.05000026	          0.06099122	          0.35520837	          0.26472641	          0.17692990	          0.05000000	          0.05000001	          0.17663003	          0.11283577	          0.30146915	          0.05000000	          0.42194829	          0.41516070	          0.35774415	          0.05000000	          0.05000000	          0.05000000	          0.08172555	          0.05000015	          0.05000007	          0.89409705	          0.30580945	          0.14330467	          0.65326122	          0.73302172	          0.69579137	          0.08532063	          0.07439690	          0.05699995	          0.30942347	          0.05000005	          0.05000001	          0.22812974	          0.05905941	          0.05000008	          0.05019402	          0.07316480	          0.07016892	          0.05000001	          0.05000008	          0.14039751	          0.19744236	          0.22228157	          0.12505831	          0.14179500	          0.08598749	          0.05015456	          0.05000010	          0.05000066	          0.05000059	          0.05000051	          0.17995625	          0.18574588	          0.05000002	          0.05000013	          0.05000005	          0.10481576	          0.06099054	          0.06099054	          0.06099053	          0.06355600	          0.09548252	          0.05000006	          0.06897125	          0.08305384	          0.08459757	          0.31234115	          0.30234329	          0.22304987	          0.67316765	          0.77391521	          0.36562195	          0.14637569	          0.05000000	          0.05000000	
